<?xml version="1.0" standalone="no"?>
<!DOCTYPE svg PUBLIC "-//W3C//DTD SVG 20010904//EN"
 "http://www.w3.org/TR/2001/REC-SVG-20010904/DTD/svg10.dtd">
<svg version="1.0" xmlns="http://www.w3.org/2000/svg"
 width="409.000000pt" height="346.000000pt" viewBox="0 0 409.000000 346.000000"
 preserveAspectRatio="xMidYMid meet">

<g transform="translate(0.000000,346.000000) scale(0.100000,-0.100000)"
fill="#000000" stroke="none">
<path d="M1676 3379 c-126 -21 -251 -97 -327 -199 -80 -107 -109 -207 -109
-387 l0 -122 -42 -11 c-24 -6 -88 -25 -143 -42 -68 -21 -100 -27 -103 -19 -2
7 -30 51 -61 99 -141 213 -302 332 -454 332 -51 0 -86 -9 -199 -52 l-138 -53
0 -109 0 -108 28 6 c15 3 37 8 48 12 22 6 22 4 20 -109 l-1 -116 -43 -12 c-40
-11 -62 -32 -49 -45 3 -3 24 0 47 7 46 14 60 5 60 -38 0 -17 -11 -24 -55 -38
l-55 -18 0 -97 c0 -113 23 -196 96 -343 67 -136 170 -267 269 -341 11 -9 16
-15 10 -16 -23 0 -146 105 -197 167 -71 89 -88 114 -137 203 l-41 75 0 -297 0
-298 27 -7 c60 -16 121 -7 233 37 110 42 113 42 165 30 29 -7 77 -11 108 -8
l55 4 6 -50 c11 -94 9 -106 -19 -106 l-25 0 0 -466 0 -466 28 6 c46 9 301 44
413 57 l106 11 74 -50 c158 -107 310 -173 494 -214 135 -31 403 -33 540 -4
175 37 345 108 504 214 l84 55 115 -12 c122 -12 381 -48 420 -58 l22 -5 0 465
0 466 -32 3 c-24 2 -33 8 -32 21 0 9 1 44 2 77 l2 59 51 -6 c28 -3 80 0 117 6
l67 13 100 -42 c103 -44 161 -53 238 -37 l37 8 0 312 0 312 -49 -91 c-26 -50
-63 -113 -81 -140 -44 -65 -186 -207 -229 -229 -25 -13 -12 4 52 67 128 125
207 259 276 467 26 78 31 107 29 169 l-3 75 -60 21 c-57 20 -60 23 -57 51 2
17 6 32 8 34 2 2 28 -3 59 -12 53 -15 55 -15 55 3 0 15 -13 23 -54 35 l-55 16
-3 112 c-2 62 -2 114 -1 116 3 4 64 -12 99 -26 11 -4 14 15 14 105 l0 110
-142 57 c-136 54 -146 57 -218 53 -99 -4 -182 -44 -279 -134 -91 -85 -162
-178 -237 -312 -3 -5 -259 71 -271 81 -9 7 -13 50 -13 152 0 167 -16 235 -78
331 -77 119 -219 213 -352 234 -76 12 -663 11 -734 -1z m715 -129 c121 -23
223 -100 282 -214 l32 -61 3 -222 3 -221 72 -56 c244 -187 405 -453 462 -760
17 -92 19 -376 2 -392 -9 -9 -198 -10 -1469 -6 l-937 2 -6 21 c-11 35 -8 300
5 368 32 178 114 374 209 506 65 89 189 215 267 271 l62 44 -5 168 c-6 184 3
254 41 338 47 102 147 182 261 210 63 15 639 18 716 4z m-1780 -531 c51 -26
122 -91 161 -146 l29 -43 -26 -12 c-23 -10 -28 -10 -36 4 -15 27 -76 96 -107
123 -50 42 -119 68 -163 61 -46 -7 -49 -2 -11 18 39 22 106 20 153 -5z m3026
-4 l28 -25 -33 11 c-70 24 -168 -30 -254 -136 -28 -35 -54 -63 -57 -61 -3 2
-14 6 -24 9 -17 6 -16 10 11 49 39 57 134 145 174 163 54 23 122 19 155 -10z
m-2397 -113 c0 -24 -106 -85 -213 -122 -64 -22 -161 -59 -217 -82 -111 -45
-125 -61 -113 -120 6 -31 5 -32 -11 -19 -23 19 -56 85 -56 110 0 14 13 27 40
41 66 33 277 115 395 153 151 48 175 53 175 39z m1845 -74 c99 -32 221 -75
270 -96 106 -45 113 -59 68 -144 l-27 -53 -6 52 c-3 29 -10 57 -15 62 -13 13
-219 92 -329 127 -81 25 -122 50 -191 116 -15 14 27 2 230 -64z m-2485 -58 c0
-5 -6 -10 -14 -10 -24 0 -46 -47 -46 -98 0 -127 90 -245 173 -228 l31 6 -24
-25 c-15 -16 -34 -25 -53 -25 -130 0 -240 272 -151 371 18 20 84 27 84 9z
m2955 4 c47 -18 59 -135 24 -231 -28 -74 -104 -153 -148 -153 -40 0 -60 9 -72
31 -8 17 -6 18 20 13 62 -13 139 68 162 171 16 72 6 118 -34 149 l-32 26 32 0
c17 0 39 -3 48 -6z m-2660 -250 c-16 -31 -20 -33 -26 -17 -13 31 -10 43 14 52
31 12 34 5 12 -35z m2325 -8 l-1 -31 -19 24 c-26 30 -26 51 0 44 15 -4 20 -14
20 -37z m-2191 -981 c65 -33 81 -196 24 -253 -23 -22 -23 -26 -9 -34 30 -17
36 -55 29 -178 l-6 -118 -58 -15 c-32 -8 -61 -12 -64 -9 -3 3 -5 65 -5 139 l0
133 -25 0 -24 0 -3 -146 -3 -147 -62 -17 -63 -17 0 338 0 339 120 0 c86 0 129
-4 149 -15z m371 -40 l0 -55 -65 0 -65 0 0 -56 0 -56 65 7 65 7 0 -50 c0 -47
-1 -50 -31 -56 -17 -3 -47 -6 -65 -6 l-34 0 0 -66 0 -65 70 7 70 7 0 -52 c0
-28 -3 -51 -7 -51 -5 0 -61 -9 -126 -20 -65 -11 -125 -20 -133 -20 -12 0 -14
35 -14 213 0 118 3 248 6 290 l7 77 128 0 129 0 0 -55z m355 -92 c10 -82 23
-193 30 -248 7 -55 12 -101 11 -102 0 -1 -29 -5 -62 -8 l-62 -7 -7 41 c-6 38
-9 41 -39 41 -40 0 -56 -15 -56 -56 0 -29 -3 -32 -37 -38 -21 -3 -51 -6 -67
-6 -27 0 -28 2 -23 38 3 20 18 134 33 252 14 118 28 221 30 228 2 9 35 12 117
12 l114 0 18 -147z m351 131 c51 -24 64 -49 64 -122 l0 -63 -65 2 -65 2 0 43
c0 52 -22 79 -51 64 -17 -10 -19 -23 -19 -150 0 -152 3 -170 31 -170 25 0 39
30 39 84 l0 46 65 0 65 0 0 -65 c0 -35 -5 -75 -11 -88 -16 -35 -63 -58 -127
-64 -76 -7 -134 10 -167 49 l-26 31 3 173 c3 168 4 173 28 199 14 15 34 31 45
35 36 15 155 11 191 -6z m384 -34 l0 -50 -40 0 -41 0 1 -202 c1 -179 0 -203
-14 -202 -9 0 -38 1 -66 2 l-50 2 -2 203 -3 202 -37 3 c-38 3 -38 4 -38 48 l0
44 145 0 145 0 0 -50z m162 38 c3 -7 6 -127 7 -267 l3 -254 -48 7 c-26 3 -55
6 -65 6 -18 0 -19 13 -19 260 l0 260 59 0 c38 0 60 -4 63 -12z m168 5 c-1 -28
45 -330 50 -336 4 -5 15 71 25 167 l18 176 65 0 65 0 -6 -32 c-2 -18 -19 -145
-38 -283 -18 -137 -35 -253 -39 -257 -6 -8 -168 17 -178 26 -2 3 -22 114 -43
248 -21 134 -42 255 -45 271 l-6 27 66 0 c36 0 66 -3 66 -7z m530 -59 l0 -67
-65 6 -65 6 0 -63 c0 -63 0 -64 31 -70 17 -3 47 -6 66 -6 l34 0 -3 -62 c-2
-35 -7 -62 -13 -62 -5 1 -34 4 -62 8 l-53 7 0 -74 0 -74 68 -15 67 -14 3 -65
3 -65 -134 34 -134 34 -7 136 c-3 74 -6 211 -6 304 l0 168 135 0 135 0 0 -66z
m-1464 -482 c15 -10 34 -47 34 -66 0 -25 -47 -20 -53 5 -3 12 -10 18 -16 14
-14 -8 -14 -142 -1 -150 16 -10 25 25 12 46 -22 34 -15 49 23 49 l35 0 0 -69
c0 -65 -10 -95 -25 -71 -4 7 -12 7 -25 0 -27 -14 -37 -13 -60 10 -17 17 -20
33 -20 110 0 77 3 93 20 110 20 20 56 26 76 12z m92 -24 c2 -16 7 -28 12 -28
5 0 10 12 12 28 2 19 9 28 26 30 27 4 27 -1 2 -106 -11 -46 -20 -99 -20 -118
0 -27 -4 -34 -20 -34 -16 0 -20 7 -20 38 0 20 -9 71 -20 112 -26 99 -26 112 3
108 16 -2 23 -11 25 -30z m166 15 c3 -10 8 -40 12 -68 l8 -50 10 65 11 65 38
3 37 3 0 -130 c0 -124 -1 -131 -20 -131 -18 0 -20 7 -21 73 -1 77 -6 75 -23
-13 -9 -45 -15 -55 -31 -55 -17 0 -23 12 -37 75 l-16 75 -1 -77 c-1 -71 -3
-78 -21 -78 -18 0 -20 7 -22 93 0 50 -2 103 -2 117 -3 41 4 50 39 50 23 0 35
-5 39 -17z m-473 -238 c238 -85 512 -86 758 -1 76 26 121 30 201 17 l45 -7
-70 -36 c-87 -45 -219 -91 -322 -114 -58 -13 -121 -18 -248 -17 -157 0 -179 3
-288 31 -74 19 -158 50 -225 83 l-107 53 50 6 c97 13 138 10 206 -15z"/>
<path d="M1723 2960 c-42 -17 -52 -48 -54 -168 -1 -62 0 -115 2 -116 2 -2 38
5 79 15 201 52 447 46 653 -17 15 -5 17 5 17 113 0 126 -7 146 -57 172 -26 13
-606 14 -640 1z"/>
<path d="M1570 2534 c-30 -14 -98 -54 -151 -89 -219 -146 -393 -392 -458 -647
-24 -92 -44 -259 -32 -271 4 -4 117 1 252 12 134 11 309 25 389 31 243 17 245
17 262 54 9 17 33 47 55 66 l40 35 -125 365 c-68 201 -132 389 -141 417 -9 29
-20 53 -26 52 -5 0 -35 -11 -65 -25z"/>
<path d="M2415 2363 c-31 -104 -90 -293 -131 -422 l-73 -234 29 -36 c16 -20
36 -53 45 -73 l15 -38 441 0 440 0 -6 58 c-41 348 -214 639 -495 832 -63 43
-173 100 -193 100 -9 0 -34 -65 -72 -187z"/>
<path d="M1973 1653 c-43 -24 -70 -61 -85 -116 -11 -41 -10 -52 8 -93 47 -115
181 -150 271 -71 62 55 78 120 47 198 -25 62 -82 99 -153 99 -35 0 -68 -7 -88
-17z"/>
<path d="M892 1073 c3 -50 6 -58 23 -58 26 0 48 47 40 85 -6 25 -11 30 -36 30
l-30 0 3 -57z"/>
<path d="M1607 1083 c-4 -43 -10 -102 -13 -130 l-7 -53 32 0 c18 0 31 5 31 13
0 40 -24 233 -30 240 -4 4 -10 -27 -13 -70z"/>
</g>
</svg>
